# xmcd CD database file
# Copyright (C) 1993-1998 Ti Kan
# 
# Track frame offsets:
#     187
#     15187
#     30897
#     44340
#     61695
#     77072
#     92785
#     109025
#     123747
#     148322
# 
# Disc length: 2184 seconds
# 
# Revision: 1
# Processed by: cddbd v1.4b41PL1 Copyright (c) Steve Scherf et al.
# Submitted via: DiscPlay 4.0.4
# 
DISCID=7708860a
DTITLE=Traveling Wilburys - Traveling Wilburys
DYEAR=1900
DGENRE=
TTITLE0=Handle With Care
TTITLE1=Dirty World
TTITLE2=Rattled
TTITLE3=Last Night
TTITLE4=Not Alone Any More
TTITLE5=Congratulations
TTITLE6=Heading For The Light
TTITLE7=Margarita
TTITLE8=Tweeter And The Monkey Man
TTITLE9=End Of The Line
EXTD=
EXTT0=
EXTT1=
EXTT2=
EXTT3=
EXTT4=
EXTT5=
EXTT6=
EXTT7=
EXTT8=
EXTT9=
PLAYORDER=
